<mxfile host="app.diagrams.net" modified="2022-08-02T06:59:13.422Z" agent="5.0 (Windows NT 10.0; Win64; x64) AppleWebKit/537.36 (KHTML, like Gecko) Chrome/103.0.0.0 Safari/537.36" etag="46kjPrM8nFu-ux4O3FQ0" version="20.2.2" type="github">
  <diagram name="Page-1" id="e7e014a7-5840-1c2e-5031-d8a46d1fe8dd">
    <mxGraphModel dx="1100" dy="438" grid="1" gridSize="10" guides="1" tooltips="1" connect="1" arrows="1" fold="1" page="1" pageScale="1" pageWidth="1169" pageHeight="826" background="none" math="0" shadow="0">
      <root>
        <mxCell id="0" />
        <mxCell id="1" parent="0" />
        <mxCell id="2" value="Admin" style="swimlane;whiteSpace=wrap" parent="1" vertex="1">
          <mxGeometry x="164.5" y="128" width="415.5" height="402" as="geometry" />
        </mxCell>
        <mxCell id="5" value="" style="ellipse;shape=startState;fillColor=#000000;strokeColor=#ff0000;" parent="2" vertex="1">
          <mxGeometry x="100" y="40" width="30" height="30" as="geometry" />
        </mxCell>
        <mxCell id="6" value="" style="edgeStyle=elbowEdgeStyle;elbow=horizontal;verticalAlign=bottom;endArrow=open;endSize=8;strokeColor=#FF0000;endFill=1;rounded=0" parent="2" source="5" edge="1">
          <mxGeometry x="100" y="40" as="geometry">
            <mxPoint x="115" y="110" as="targetPoint" />
          </mxGeometry>
        </mxCell>
        <mxCell id="9" value="" style="endArrow=open;strokeColor=#FF0000;endFill=1;rounded=0;entryX=0.505;entryY=0.04;entryDx=0;entryDy=0;entryPerimeter=0;" parent="2" edge="1">
          <mxGeometry relative="1" as="geometry">
            <mxPoint x="115" y="160" as="sourcePoint" />
            <mxPoint x="115.55000000000007" y="222" as="targetPoint" />
          </mxGeometry>
        </mxCell>
        <mxCell id="GjG5dphINj6STpPc9jIr-42" value="Admin Dashboard" style="rounded=1;whiteSpace=wrap;html=1;" vertex="1" parent="2">
          <mxGeometry x="60" y="112" width="110" height="48" as="geometry" />
        </mxCell>
        <mxCell id="GjG5dphINj6STpPc9jIr-43" value="Laporan Whatsapp" style="rounded=1;whiteSpace=wrap;html=1;" vertex="1" parent="2">
          <mxGeometry x="60" y="222" width="112.75" height="48" as="geometry" />
        </mxCell>
        <mxCell id="GjG5dphINj6STpPc9jIr-45" value="" style="whiteSpace=wrap;strokeColor=#FF0000;fillColor=#FF0000" vertex="1" parent="2">
          <mxGeometry x="215.5" y="180" width="5" height="132" as="geometry" />
        </mxCell>
        <mxCell id="GjG5dphINj6STpPc9jIr-48" value="" style="endArrow=open;strokeColor=#FF0000;endFill=1;rounded=0" edge="1" parent="2">
          <mxGeometry relative="1" as="geometry">
            <mxPoint x="172.7500000000001" y="245.65999999999985" as="sourcePoint" />
            <mxPoint x="215.5" y="246" as="targetPoint" />
          </mxGeometry>
        </mxCell>
        <mxCell id="GjG5dphINj6STpPc9jIr-51" value="" style="endArrow=open;strokeColor=#FF0000;endFill=1;rounded=0;entryX=-0.006;entryY=0.468;entryDx=0;entryDy=0;entryPerimeter=0;" edge="1" parent="2" target="GjG5dphINj6STpPc9jIr-53">
          <mxGeometry relative="1" as="geometry">
            <mxPoint x="220.5" y="201.9999999999999" as="sourcePoint" />
            <mxPoint x="263.25" y="202.33999999999992" as="targetPoint" />
          </mxGeometry>
        </mxCell>
        <mxCell id="GjG5dphINj6STpPc9jIr-52" value="" style="endArrow=open;strokeColor=#FF0000;endFill=1;rounded=0;entryX=0;entryY=0.458;entryDx=0;entryDy=0;entryPerimeter=0;" edge="1" parent="2" target="GjG5dphINj6STpPc9jIr-54">
          <mxGeometry relative="1" as="geometry">
            <mxPoint x="220.5" y="291.9999999999999" as="sourcePoint" />
            <mxPoint x="263.25" y="292.3399999999999" as="targetPoint" />
          </mxGeometry>
        </mxCell>
        <mxCell id="GjG5dphINj6STpPc9jIr-53" value="Admin menklik tombol kirim" style="rounded=1;whiteSpace=wrap;html=1;" vertex="1" parent="2">
          <mxGeometry x="265.5" y="180" width="112.75" height="48" as="geometry" />
        </mxCell>
        <mxCell id="GjG5dphINj6STpPc9jIr-54" value="Admin menklik tombol hapus" style="rounded=1;whiteSpace=wrap;html=1;" vertex="1" parent="2">
          <mxGeometry x="265.5" y="270" width="112.75" height="48" as="geometry" />
        </mxCell>
        <mxCell id="GjG5dphINj6STpPc9jIr-55" value="" style="endArrow=open;strokeColor=#FF0000;endFill=1;rounded=0;entryX=0;entryY=0.482;entryDx=0;entryDy=0;entryPerimeter=0;" edge="1" parent="2" target="15">
          <mxGeometry relative="1" as="geometry">
            <mxPoint x="378.25" y="203.75999999999988" as="sourcePoint" />
            <mxPoint x="421" y="204.0999999999999" as="targetPoint" />
          </mxGeometry>
        </mxCell>
        <mxCell id="3" value="Sistem" style="swimlane;whiteSpace=wrap" parent="1" vertex="1">
          <mxGeometry x="580" y="128" width="190" height="402" as="geometry" />
        </mxCell>
        <mxCell id="15" value="Sistem mengirim &#xa;laporan pembayaran&#xa;Â ke No. WA Siswa" style="" parent="3" vertex="1">
          <mxGeometry x="30" y="180" width="120" height="50" as="geometry" />
        </mxCell>
        <mxCell id="GjG5dphINj6STpPc9jIr-56" value="Sistem menghapus&#xa;laporan pembayaran&#xa;Siswa" style="" vertex="1" parent="3">
          <mxGeometry x="30" y="270" width="120" height="50" as="geometry" />
        </mxCell>
        <mxCell id="GjG5dphINj6STpPc9jIr-57" value="" style="endArrow=open;strokeColor=#FF0000;endFill=1;rounded=0;entryX=0;entryY=0.482;entryDx=0;entryDy=0;entryPerimeter=0;exitX=1.003;exitY=0.498;exitDx=0;exitDy=0;exitPerimeter=0;" edge="1" target="GjG5dphINj6STpPc9jIr-56" parent="1" source="GjG5dphINj6STpPc9jIr-54">
          <mxGeometry relative="1" as="geometry">
            <mxPoint x="545.4560000000001" y="424.504" as="sourcePoint" />
            <mxPoint x="585.5" y="422.0999999999999" as="targetPoint" />
          </mxGeometry>
        </mxCell>
      </root>
    </mxGraphModel>
  </diagram>
</mxfile>
